<svg id="Слой_1" xmlns="http://www.w3.org/2000/svg" viewBox="0 0 55 27"><style>.st0{fill:#3e4d9c}</style><path class="st0" d="M38.6 6.5c-.1 1.1-.3 2.2-.5 3.2-1-.3-2-.8-3.5-.7-.9.1-2 .4-2 1.2 0 .9 1.5 1.4 2.3 1.9 1.5.7 3.1 1.7 3.2 3.6.1 1.3-.4 2.6-1.4 3.5-2.1 2-6.8 2.2-10 .9.2-1.1.4-2.1.5-3.2 1.2.5 2.9 1.2 4.8 1 .8-.1 1.9-.6 1.9-1.5 0-1.1-2-1.7-3-2.2-1.2-.6-2.5-1.7-2.5-3.3 0-1 .3-2 .9-2.8 1.7-2 5.9-2.7 9.3-1.6zM20.3 20.8l2.4-14.5h3.9l-2.4 14.5h-3.9zM16.9 6.3c-1.4 3.2-2.5 6.6-3.9 9.8l-.4-1.9.1.3c-.3-1-.8-2-1.5-2.8l-.1-.1c-.1-.1-.2-.3-.4-.4l-.2-.3c-1-1.1-2.1-2-3.3-2.7l3.5 12.5h4.2c2-4.9 4.1-9.7 6.2-14.5h-4.2z"/><path d="M9.5 6.3H3v.3c3.7.7 8.4 3.9 9.7 7.9l-1.4-6.8c-.1-.9-.9-1.5-1.8-1.4z" fill="#f49700"/><path class="st0" d="M52 20.8h-3.6c-.2-.7-.3-1.5-.5-2.2H43l-1 2.2h-4.2l5.4-12.4c.2-.5.7-1.3.8-1.6.3-.5 1.3-.5 1.8-.5h3L52 20.8zm-6-10.5l-2 5.4h3.3L46 10.3z"/></svg>