<svg id="Слой_1" xmlns="http://www.w3.org/2000/svg" viewBox="0 0 55 27"><style>.st0{fill:#3e4d9c}.st1{fill:#f49700}</style><g id="Слой_2"><g id="Layer_1"><path class="st0" d="M41.3 17.1c-.1.4-.1.8-.2 1.2-.4-.1-.8-.3-1.4-.3-.4 0-.8.2-.8.5 0 .4.6.6.9.7.6.3 1.2.7 1.3 1.4 0 .5-.2 1-.5 1.4-.8.8-2.7.9-3.9.4.1-.4.1-.8.2-1.3.5.2 1.2.5 1.9.4.3 0 .7-.2.7-.6 0-.4-.8-.7-1.2-.9-.5-.3-1-.7-1-1.3 0-.4.1-.8.4-1.1.6-.6 2.3-.9 3.6-.5zM26.4 9h1.7l-1 6.5h-1.7l1-6.5zm-5.8 0h2.6c1.6 0 2.1.9 1.9 2.1-.1.9-.8 1.6-1.7 1.8l1.6 2.7h-2.1L21.7 13l-.4 2.6h-1.7l1-6.6zm1.5 1.3l-.3 1.6h.5c.5 0 .9-.3 1-.8.1-.4-.2-.7-.6-.8h-.6zm12-1.3h1.7l-1.1 6.5h-1.6l1-6.5zM37 9h3.7l-.2 1.4h-2l-.2 1.1h1.9l-.2 1.4h-1.9l-.2 1.2h2l-.2 1.4H36L37 9zM15.9 9h3.7l-.2 1.4h-2l-.2 1.1h1.9l-.2 1.4H17l-.2 1.2h2l-.2 1.4h-3.7l1-6.5zm13.5 0h3.7l-.2 1.4h-2.1l-.2 1.1h1.9l-.2 1.4h-1.9l-.4 2.6h-1.7L29.4 9zm14.5 0h-2.2l-1 6.5h2.2c2.1 0 3.7-1.4 4-3.3.2-1.2-.4-3.2-3-3.2zm1.2 3.2c-.2 1.2-1 1.9-2.1 1.9h-.4l.6-3.7h.3c1.3 0 1.8.9 1.6 1.8zm-37-4.1h3.1l.4 4.7c2-3.6 4.1-7 6.2-10.3h1c-2.2 4.3-4.4 8.6-6.5 13H10l-.6-5.2C9.3 9 9 8.4 8.1 8.3v-.2z"/><path class="st1" d="M9.3 5.4l2.6 1.1.2 3h.2l2.4-4.1v-.2H9.3v.2z"/><path class="st0" d="M22 19.1c-.4 0-.8.2-1.1.5l.4-2.6h-1.1l-.8 5.7h1.1l.1-.4c.2.3.6.5.9.5.9 0 1.7-.9 1.8-1.9.1-1-.5-1.8-1.3-1.8zm.1 1.9c-.1.4-.4.8-.8.8s-.7-.4-.6-.8c.1-.4.4-.8.8-.8s.7.3.6.8z"/><path class="st0" d="M23.3 19.2h1.3l.6 1.8 1.2-1.8h1.2l-3.3 5.3h-1.2l1.3-2.2-1.1-3.1zm10.8 3.5L35 17h1.6l-1 5.7h-1.5zM32.8 17c-.5 1.3-1 2.6-1.6 3.9l-.2-.8v.1c-.1-.4-.3-.8-.6-1.1 0-.1-.1-.1-.1-.2l-.1-.1c-.4-.4-.8-.8-1.3-1.1l1.4 4.9H32l2.4-5.7h-1.6z"/><path class="st1" d="M29.8 17h-2.6v.1c1.5.3 3.3 1.5 3.8 3.1l-.5-2.7c0-.3-.3-.5-.7-.5z"/><path class="st0" d="M46.6 22.8h-1.4c-.1-.3-.1-.6-.2-.9h-2l-.4.9H41l2.1-4.9c.1-.2.3-.5.3-.6.2-.3.6-.3.8-.3h1.2l1.2 5.8zm-2.4-4.2l-.8 2.1h1.3l-.5-2.1z"/></g></g></svg>