<svg xmlns="http://www.w3.org/2000/svg" viewBox="0 0 55 27"><path d="M38.8 4l-.3 1.9c-.6-.3-1.1-.5-1.6-.5-1.3 0-2.3 1.3-2.3 3.3 0 1.3.6 2.1 1.7 2.1.4 0 .9-.1 1.5-.4l-.3 2c-.5.2-1 .2-1.6.3-1.9 0-3.1-1.4-3.1-3.8 0-3.1 1.6-5.3 4-5.3.3 0 .5 0 .8.1l.7.2c.3 0 .3 0 .5.1zm-5.9 1.2h-.2c-.6 0-.9.3-1.5 1.2l.2-1.1h-1.6l-1.1 7.1h1.8c.6-4.3.8-5.1 1.7-5.1h.1c.1-.7.3-1.4.6-2.1zm-10.6 7.1c-.4.1-.8.2-1.3.2-.9 0-1.4-.6-1.4-1.6 0-.2 0-.4.1-.6l.1-.7.1-.6.8-4.8h1.8l-.2 1h.9L22.9 7H22l-.5 3v.3c0 .4.2.5.6.5.2 0 .3 0 .5-.1l-.3 1.6zm-7-4.8c0 .9.4 1.5 1.3 2 .7.4.8.5.8.8 0 .4-.3.6-1 .6-.5 0-1.1-.1-1.6-.3l-.2 1.6h.1l.3.1c.1 0 .3 0 .5.1.4 0 .7.1 1 .1 1.9 0 2.7-.8 2.7-2.4 0-1-.4-1.5-1.2-2-.7-.3-.8-.4-.8-.8s.3-.6.9-.6c.4 0 .8 0 1.3.1l.3-1.6c-.5-.1-1-.1-1.6-.1-2.1 0-2.8 1.1-2.8 2.4zm37.6 4.9h-1.7l.1-.7c-.5.5-1 .8-1.6.8-1.3 0-2.1-1.2-2.1-2.9 0-2.4 1.3-4.3 2.9-4.3.7 0 1.2.3 1.7 1l.4-2.5h1.7l-1.4 8.6zm-2.6-1.7c.8 0 1.4-1 1.4-2.4 0-.9-.3-1.4-.9-1.4-.8 0-1.4 1-1.4 2.4 0 .9.3 1.4.9 1.4zm-22.4 1.5c-.6.2-1.2.3-1.8.3-2 0-3-1.1-3-3.2 0-2.4 1.3-4.2 3.1-4.2 1.5 0 2.4 1 2.4 2.6 0 .6-.1 1.2-.2 1.7h-3.5v.2c0 .8.5 1.2 1.6 1.2.6 0 1.3-.1 1.8-.4l-.4 1.8zm-1-4.2v-.4c0-.6-.3-.9-.8-.9-.6 0-1 .5-1.1 1.3h1.9zM8.2 12.4H6.4l1-6.7-2.2 6.7H4l-.2-6.7-1 6.7H1.1l1.4-8.7H5l.1 5.4 1.7-5.4h2.8l-1.4 8.7zm4.6-3.2h-.4c-1 0-1.5.4-1.5 1.1 0 .4.2.7.6.7.7 0 1.2-.7 1.3-1.8zm1.3 3.2h-1.5v-.7c-.4.6-1 .9-1.9.9-1 0-1.6-.8-1.6-1.9C9.1 9 10.2 8 12.2 8c.2 0 .5 0 .7.1.1-.4.1-.5.1-.7 0-.5-.3-.6-1.1-.6-.5 0-1 .1-1.5.2l-.2.1H10l.2-1.6c.9-.3 1.5-.4 2.1-.4 1.5 0 2.3.7 2.3 2.1 0 .3 0 .6-.1 1.4l-.4 2.5-.1.5v.6l.1.2zm27.7-3.2h-.4c-1 0-1.5.4-1.5 1.1 0 .4.3.7.6.7.8 0 1.3-.7 1.3-1.8zm1.3 3.2h-1.5v-.7c-.4.6-1 .9-1.9.9-1 0-1.6-.8-1.6-1.9C38.1 9 39.2 8 41.2 8c.2 0 .5 0 .7.1 0-.2.1-.3.1-.5 0-.5-.3-.6-1.1-.6-.5 0-1 .1-1.5.2l-.3.1h-.2l.2-1.6c.9-.3 1.5-.4 2.1-.4 1.5 0 2.3.7 2.3 2.1 0 .3 0 .6-.1 1.4l-.4 2.5-.1.5v.6h.2zm5-7.2h-.2c-.6 0-.9.3-1.5 1.2l.2-1.1H45l-1.1 7.1h1.8c.6-4.3.8-5.1 1.7-5.1h.1c.1-.7.3-1.4.6-2.1z" fill="#e30613"/><path d="M40.6 19.2c0 1.6-.5 2.6-1.3 2.6-.6 0-.9-.6-.9-1.6 0-1.1.5-2.4 1.3-2.4.7 0 .9.7.9 1.4zm1.8.1c0-1.8-.9-3.2-2.5-3.2-1.9 0-3.1 1.7-3.1 4.2 0 1.8.7 3.2 2.5 3.2s3.1-1.3 3.1-4.2zm-5.1-4.5l-.3 1.9c-.6-.3-1-.5-1.5-.5-1.2 0-2.1 1.3-2.1 3.3 0 1.3.6 2.1 1.5 2.1.4 0 .9-.1 1.4-.4l-.3 2c-.5.2-1 .2-1.5.3-1.8 0-2.9-1.4-2.9-3.8 0-3.1 1.5-5.3 3.7-5.3.3 0 .5 0 .7.1l.7.2c.4.1.4.1.6.1zm-11 1.3h-.2c-.5 0-.9.3-1.4 1.2l.1-1.1h-1.5l-1 7.1h1.6c.6-4.3.8-5.1 1.5-5.1h.1c.4-.7.6-1.4.8-2.1zm21.6 7.1h-1.6l.1-.7c-.5.5-.9.8-1.5.8-1.2 0-2-1.2-2-2.9 0-2.3 1.2-4.3 2.7-4.3.6 0 1.1.3 1.6 1l.4-2.5h1.6l-1.3 8.6zm-2.4-1.7c.8 0 1.3-1 1.3-2.4 0-.9-.3-1.4-.9-1.4-.8 0-1.3 1-1.3 2.4 0 1 .3 1.4.9 1.4zm-34.7 1.7c-.5.2-1.1.3-1.7.3-1.8 0-2.8-1.1-2.8-3.2 0-2.4 1.2-4.2 2.9-4.2 1.4 0 2.2 1 2.2 2.6 0 .6-.1 1.2-.2 1.7H7.9v.2c0 .8.5 1.2 1.5 1.2.6 0 1.2-.2 1.7-.4l-.3 1.8zM9.9 19v-.4c0-.6-.3-.9-.8-.9s-.9.5-1.1 1.3h1.9zm20.6 4.2c-.5.2-1.1.3-1.7.3-1.9 0-2.8-1.1-2.8-3.2 0-2.4 1.2-4.2 2.9-4.2 1.4 0 2.2 1 2.2 2.6 0 .6-.1 1.2-.2 1.7h-3.3v.2c0 .8.5 1.2 1.5 1.2.6 0 1.2-.2 1.7-.4l-.3 1.8zm-.9-4.2v-.4c0-.6-.3-.9-.8-.9s-.9.5-1.1 1.3h1.9zm24 4.2c-.5.2-1.1.3-1.7.3-1.8 0-2.8-1.1-2.8-3.2 0-2.4 1.2-4.2 2.9-4.2 1.4 0 2.2 1 2.2 2.6 0 .6-.1 1.2-.2 1.7h-3.3v.2c0 .8.5 1.2 1.5 1.2.6 0 1.2-.2 1.7-.4l-.3 1.8zm-.9-4.2v-.4c0-.6-.3-.9-.8-.9s-.9.5-1.1 1.3h1.9zM5.9 16.5c-.4-.3-.9-.5-1.4-.4-.7 0-1.2.1-1.2.9 0 1.3 2.4.8 2.4 3.5 0 2.5-1.6 3.1-3.1 3.1-.6 0-1.4-.2-1.9-.5l.4-1.8c.3.3 1 .5 1.5.5s1.3-.1 1.3-1.1c0-1.4-2.4-.9-2.4-3.4 0-2.3 1.4-3 2.8-3 .8 0 1.5.1 1.9.4l-.3 1.8zm9.8 6.7c-.3.2-.8.3-1.5.3-1.4 0-2.3-1.4-2.3-3.2 0-2.3 1.3-4.1 3.2-4.1.4 0 1.1.2 1.6.5l-.4 1.7c-.3-.2-.7-.4-1.1-.4-.9 0-1.5.8-1.5 2.3 0 .8.5 1.5 1.2 1.5.4 0 .8-.1 1.1-.3l-.3 1.7zm6.1-1.8c-.1.6-.2 1.2-.2 1.8H20l.1-1.1c-.5.8-1 1.3-1.9 1.3-1 0-1.5-1.1-1.5-2.4 0-.5 0-1 .1-1.5l.5-3.3h1.8l-.5 3.3c-.1.4-.1.7-.1 1.1 0 .4.2.8.7.8.7 0 1.2-.9 1.3-1.9l.5-3.2h1.7l-.9 5.1z" fill="#f39400"/></svg>