<svg xmlns="http://www.w3.org/2000/svg" viewBox="0 0 55 27"><path d="M16.5 26.9v-1.8c0-.6-.4-1.1-1-1.1h-.1c-.4 0-.8.2-1 .5-.2-.3-.6-.5-.9-.5s-.7.1-.8.4V24H12v2.8h.6v-1.6c0-.4.2-.7.6-.8h.1c.4 0 .6.3.6.8v1.6h.6v-1.6c0-.4.2-.7.6-.8h.1c.4 0 .6.3.6.8v1.6l.7.1zm9.3-2.9h-1v-.9h-.6v.9h-.6v.6h.6v1.3c0 .7.3 1.1 1 1.1.3 0 .5-.1.8-.2l-.2-.5c-.2.1-.4.2-.5.2-.3 0-.4-.2-.4-.5v-1.3h1l-.1-.7zm5.2-.1c-.3 0-.6.2-.8.4V24h-.6v2.8h.6v-1.6c0-.5.2-.7.6-.7.1 0 .3 0 .4.1l.2-.6c-.1-.1-.3-.1-.4-.1zm-8 .3c-.4-.2-.8-.3-1.2-.3-.7 0-1.2.3-1.2.9 0 .5.3.8 1 .8h.4c.3 0 .5.1.5.3 0 .2-.2.3-.6.3-.3 0-.7-.1-.9-.3l-.3.5c.4.3.8.4 1.2.4.8 0 1.3-.4 1.3-.9s-.4-.8-1-.9h-.3c-.3 0-.5-.1-.5-.3s.2-.3.5-.3.6.1.9.2l.2-.4zm16.7-.3c-.3 0-.6.2-.8.4V24h-.6v2.8h.6v-1.6c0-.5.2-.7.6-.7.1 0 .3 0 .4.1l.2-.6c-.2-.1-.3-.1-.4-.1zm-8.1 1.5c0 .8.6 1.5 1.4 1.5h.1c.4 0 .7-.1 1-.3l-.3-.5c-.2.2-.5.3-.7.3-.5 0-.9-.5-.8-1 0-.4.4-.8.8-.8.3 0 .5.1.7.3l.3-.5c-.3-.2-.7-.4-1-.3-.8 0-1.5.6-1.5 1.4v-.1zm5.8 0V24h-.6v.3c-.2-.3-.5-.4-.9-.4-.8 0-1.5.7-1.5 1.5s.7 1.5 1.5 1.5c.3 0 .7-.1.9-.4v.3h.6v-1.4zm-2.2 0c0-.5.4-.8.9-.8s.8.4.8.9-.4.8-.9.8-.8-.3-.8-.9c0 .1 0 0 0 0zm-7.6-1.5c-.8 0-1.5.7-1.5 1.5s.7 1.5 1.5 1.5c.4 0 .9-.1 1.2-.4l-.2-.5c-.2.2-.5.3-.8.3-.4 0-.8-.3-.9-.7H29v-.2c0-.9-.6-1.5-1.4-1.5zm0 .6c.4 0 .7.3.7.7h-1.5c.1-.4.5-.7.8-.7zm15.6.9v-2.6h-.6v1.5c-.2-.3-.5-.4-.9-.4-.8 0-1.5.7-1.5 1.5s.7 1.5 1.5 1.5c.3 0 .7-.1.9-.4v.3h.6v-1.4zm1.1 1c.1 0 .2 0 .2.1 0 0 0 .1.1.1v.2s0 .1-.1.1c0 0-.1 0-.1.1h-.1c-.1 0-.2-.1-.3-.2v-.2s0-.1.1-.1c0 0 .1 0 .1-.1h.1zm0 .5c.1 0 .1 0 .2-.1s.1-.2 0-.3h-.4c-.1.1-.1.2 0 .3 0 .1.1.1.2.1-.1 0-.1 0 0 0zm0-.3c.1 0 .1.1.1.1v.1h-.1l.1.1h-.1l-.1-.1v.1l.1-.3zm-.1 0l.1.1-.1-.1zm-3.4-1.2c0-.5.4-.8.9-.8s.8.4.8.9-.4.8-.9.8c-.3 0-.8-.3-.8-.9 0 .1 0 0 0 0zm-20.8 0V24h-.6v.3c-.2-.3-.5-.4-.9-.4-.8 0-1.5.7-1.5 1.5s.7 1.5 1.5 1.5c.3 0 .7-.1.9-.4v.3h.6v-1.4zm-2.4 0c0-.5.4-.8.9-.8s.8.4.8.9-.4.8-.9.8c-.4 0-.8-.3-.8-.9 0 .1 0 .1 0 0z" fill="#231f20"/><path fill="#ff5f00" d="M22.8 2.3h9.4v16.9h-9.4z"/><path d="M23.5 10.7c0-3.3 1.5-6.4 4.1-8.4-4.7-3.7-11.4-2.9-15.1 1.8s-2.9 11.4 1.8 15.1c3.9 3.1 9.4 3.1 13.3 0-2.6-2.1-4.1-5.2-4.1-8.5z" fill="#eb001b"/><path d="M44.8 10.7c0 5.9-4.8 10.7-10.7 10.7-2.4 0-4.7-.8-6.6-2.3C32.3 15.4 33 8.7 29.3 4c-.5-.7-1.1-1.3-1.8-1.8 4.6-3.6 11.4-2.8 15 1.9 1.6 1.9 2.3 4.2 2.3 6.6zm-1 6.7V17h.1-.4.2l.1.4zm.8 0V17h-.1l-.1.3-.2-.3h-.1v.4h.1v-.3l.1.3h.1l.1-.3.1.3z" fill="#f79e1b"/></svg>