<svg id="Layer_1" xmlns="http://www.w3.org/2000/svg" viewBox="0 0 87.3 55.1"><style>.st2{fill:#fff}</style><linearGradient id="SVGID_1_" gradientUnits="userSpaceOnUse" x1="51.199" y1="592.654" x2="51.199" y2="564.406" gradientTransform="translate(0 -540)"><stop offset=".103" stop-color="#010101"/><stop offset=".175" stop-color="#0f0a08"/><stop offset=".299" stop-color="#291814"/><stop offset=".459" stop-color="#4c221b"/><stop offset=".647" stop-color="#80241f"/><stop offset=".734" stop-color="#9e1d20"/><stop offset=".815" stop-color="#a01e21"/><stop offset=".853" stop-color="#a52324"/><stop offset=".882" stop-color="#af2d2a"/><stop offset=".907" stop-color="#bd3934"/><stop offset=".928" stop-color="#d04a43"/><stop offset=".947" stop-color="#ec6057"/><stop offset=".949" stop-color="#f0625a"/><stop offset=".981" stop-color="#eb222c"/><stop offset="1" stop-color="#c52126"/></linearGradient><path d="M87.3 48.4c0 3.3-2.7 6-6 6H20.8c-3.3 0-5.8-2.7-5.7-6l.8-18.7c.1-3.3 2.9-6 6.2-6h59.2c3.3 0 6 2.7 6 6v18.7z" fill="url(#SVGID_1_)"/><radialGradient id="SVGID_2_" cx="20.713" cy="574.969" r="29.921" gradientTransform="translate(0 -540)" gradientUnits="userSpaceOnUse"><stop offset=".324" stop-color="#231f20"/><stop offset=".403" stop-color="#2d2323" stop-opacity=".883"/><stop offset=".543" stop-color="#452a2a" stop-opacity=".676"/><stop offset=".728" stop-color="#6e312f" stop-opacity=".402"/><stop offset=".948" stop-color="#b22832" stop-opacity=".077"/><stop offset="1" stop-color="#c42032" stop-opacity="0"/></radialGradient><path d="M87.3 39.5c0 8-6.5 14.5-14.5 14.5H29.4c-8 0-14.5-6.5-14.5-14.5v-1.2c0-8 6.5-14.5 14.5-14.5h43.3c8 0 14.5 6.5 14.5 14.5v1.2h.1z" fill="url(#SVGID_2_)"/><path class="st2" d="M72.8 30.5h-2.6v.2c0 .4.1.9.8.9h1.8c1 0 1.6.3 1.4 1.5l-.2.9c-.2 1.2-1 1.3-1.7 1.3h-1l.3-2.3c0-.3-.1-.9-.7-.9H70l-.3 1.9-.2 1.6c-.1.4.3.7.9.7h2c2 0 2.6-.7 2.9-1.2.2-.3.3-.6.3-1 0-.1.2-1.2.2-1.2.1-.7 0-1.2-.4-1.6-.5-.5-1.3-.8-2.6-.8m-22.6 2.4l-.1 1c-.1.4-.2.8-.4 1-.3.3-.6.5-1.2.5h-.3c-.5 0-.9-.2-1.1-.5-.1-.2-.1-.6-.1-1l.1-1c.1-.5.2-.9.5-1.2s.6-.4 1.1-.4h.3c.3 0 .7.1 1 .4.2.4.3.7.2 1.2m-1-2.5h-.3c-2 0-3.1.9-3.3 2.5l-.2 1.1c-.1.7 0 1.3.4 1.7.4.5 1.2.8 2.4.9h.3c2 0 3.1-.8 3.3-2.4v-.1l.1-1.1c.1-.8 0-1.3-.4-1.7-.4-.6-1.2-.9-2.3-.9zM82 32.9l-.1 1c-.1.4-.2.8-.4 1-.3.3-.6.5-1.2.5H80c-.5 0-.9-.2-1.1-.5-.1-.2-.1-.6-.1-1l.1-1c.1-.5.2-.9.5-1.2s.6-.4 1.1-.4h.3c.3 0 .7.1 1 .4.2.4.3.7.2 1.2m1.3-1.7c-.4-.5-1.2-.8-2.3-.8h-.3c-2 0-3.1.9-3.3 2.5l-.2 1.1c-.1.7 0 1.3.4 1.7.4.5 1.2.8 2.4.9h.3c2 0 3.1-.8 3.3-2.4v-.1l.1-1.1c.1-.8-.1-1.4-.4-1.8zm-16.6 1.7l-.1 1c-.1.4-.2.8-.4 1-.3.3-.6.5-1.2.5h-.3c-.5 0-.9-.2-1.1-.5-.1-.2-.1-.6-.1-1l.1-1c.1-.5.2-.9.5-1.2.3-.3.6-.4 1.1-.4h.3c.3 0 .7.1 1 .4.2.4.3.7.2 1.2m-1.1-2.5h-.3c-2 0-3.1.9-3.3 2.5l-.1 1.1c-.1.7 0 1.3.4 1.7.4.5 1.2.8 2.4.9h.3c2 0 3.1-.8 3.3-2.4v-.1l.1-1.1c.1-.8 0-1.3-.4-1.7-.5-.6-1.2-.9-2.4-.9zm-6.4.5L57 33.4l-1.6-2.5c-.2-.2-.5-.4-.9-.4h-.7l-.8 5.9h.9c.3 0 .5-.1.6-.2.2-.2.3-.4.3-.6l.3-2.6 1.2 2.2c.1.1.2.3.4.3s.4-.2.4-.2l1.8-2.2-.4 3.4h.8c.3 0 .5-.1.6-.2.2-.2.3-.4.3-.6l.6-5h-.7c-.4-.2-.7-.1-.9.2m-16.6-.4h-.3c-.3 0-.6 0-.8.1-1.5.2-2.2 1-2.4 2.4l-.1 1c-.1.7 0 1.2.4 1.6.4.4 1.1.7 2.1.8h1.8c1 0 1.1-1.1 1.1-1.1H42c-.3 0-.6 0-.8-.1h-.1c-.3-.1-.5-.3-.5-.6V34l.1-.9c0-.1 0-.2.1-.3v-.3c.1-.2.2-.4.5-.6.1-.1.2-.1.3-.2.2-.1.5-.1.9-.1h1.3c.9 0 1.1-1.1 1.1-1.1h-2.3zm40.8 16.9V46h-2.9v-2.2h2.1v-1.4h-2.1v-1.9h2.8v-1.4h-4.4v8.3h4.5zm-9.3-7h.8c.4 0 .6.1.8.3.2.2.3.5.3.9s-.1.7-.3.9c-.2.2-.5.3-.8.3h-.8v-2.4zm3.9 7l-1.6-3.7c.4-.2.8-.4 1-.8.2-.4.3-.8.3-1.3s-.1-1-.3-1.3c-.2-.4-.5-.7-.9-.9s-.9-.3-1.6-.3h-2.3v8.3h1.6V44h.8l1.4 3.4H78zm-12.5-8.3v5.8c0 .6.1 1.1.3 1.5.2.4.5.7.9.8.4.2.9.3 1.4.3.4 0 .8 0 1.1-.1.3-.1.6-.3.9-.5.2-.2.4-.5.6-.8.1-.3.2-.7.2-1.2v-5.8h-1.6v5.8c0 .4-.1.7-.3.9-.2.2-.5.3-.9.3s-.7-.1-.9-.3c-.2-.2-.3-.5-.3-.9v-5.8h-1.4zm-5 2.4c0-.3 0-.5.1-.7s.2-.3.4-.4c.2-.1.3-.1.6-.1.2 0 .4 0 .6.1.2.1.3.2.4.4.1.2.1.4.1.7v.2h1.6c0-.5-.1-.9-.2-1.3s-.3-.6-.5-.9c-.2-.2-.5-.4-.8-.5h-1.3c-.4 0-.7.1-1.1.1-.3.1-.6.3-.8.5s-.4.5-.5.9-.2.8-.2 1.3v3c0 .5.1.9.2 1.3s.3.6.5.9c.2.2.5.4.8.5s.7.1 1.1.1c.4 0 .7 0 1.1-.1.3-.1.6-.3.8-.5s.4-.5.5-.9.2-.8.2-1.3v-.3h-1.6v.6c0 .3 0 .5-.1.7s-.2.3-.4.4c-.2.1-.3.1-.6.1-.2 0-.4 0-.6-.1-.2-.1-.3-.2-.4-.4-.1-.2-.1-.4-.1-.7v-3.6h.2zm-2.8 5.9V46h-2.9v-2.2H57v-1.4h-2.1v-1.9h2.8v-1.4h-4.4v8.3h4.4zM51.8 41c-.1-.4-.3-.7-.5-1s-.5-.5-.9-.7c-.3-.3-.7-.3-1.2-.3-.6 0-1 .1-1.4.3s-.6.5-.8.8-.3.8-.3 1.2c0 .3.1.6.2.8.1.2.2.4.4.6.2.2.4.3.6.5.2.1.4.3.7.4.2.1.4.2.7.4.2.1.4.2.6.4.2.1.3.3.4.4.1.2.2.3.2.5s0 .4-.1.5-.2.3-.3.3c-.1.1-.3.1-.5.1s-.3 0-.5-.1-.3-.2-.4-.4c-.1-.2-.2-.5-.3-.8l-1.6.3c.1.5.3 1 .6 1.3s.6.6.9.8c.4.2.8.2 1.2.2.6 0 1-.1 1.4-.3s.7-.5.9-.8c.2-.4.3-.8.3-1.3 0-.3-.1-.6-.2-.9-.1-.3-.2-.5-.4-.7s-.4-.4-.6-.5c-.2-.2-.4-.3-.7-.4-.2-.1-.4-.2-.7-.4l-.6-.3c-.2-.1-.3-.2-.4-.4-.1-.1-.2-.3-.2-.4 0-.3.1-.5.2-.7.2-.2.4-.2.7-.2s.5.1.7.3.3.5.5.9l1.4-.4z"/><linearGradient id="SVGID_3_" gradientUnits="userSpaceOnUse" x1="65.05" y1="579.215" x2="65.05" y2="587.562" gradientTransform="translate(0 -540)"><stop offset="0" stop-color="#fff"/><stop offset="1" stop-color="#bbbdbf"/></linearGradient><path d="M83.4 47.6v-1.4h-2.9V44h2.1v-1.4h-2.1v-1.9h2.8v-1.4h-4.4v8.3h4.5zm-9.3-7.1h.8c.4 0 .6.1.8.3.2.2.3.5.3.9s-.1.7-.3.9c-.2.2-.5.3-.8.3h-.8v-2.4zm3.9 7.1l-1.6-3.7c.4-.2.8-.4 1-.8.2-.4.3-.8.3-1.3s-.1-1-.3-1.3c-.2-.4-.5-.7-.9-.9s-.9-.3-1.6-.3h-2.3v8.3h1.6v-3.4h.8l1.4 3.4H78zm-12.5-8.4V45c0 .6.1 1.1.3 1.5.2.4.5.7.9.8.4.2.9.3 1.4.3.4 0 .8-.1 1.1-.2.3-.1.6-.3.9-.5.2-.2.4-.5.6-.8.1-.3.2-.7.2-1.2v-5.8h-1.6v5.8c0 .4-.1.7-.3.9-.2.2-.5.3-.9.3s-.7-.1-.9-.3c-.2-.2-.3-.5-.3-.9v-5.8h-1.4v.1zm-5 2.5c0-.3 0-.5.1-.7s.2-.3.4-.4c.2-.1.3-.1.6-.1.2 0 .4 0 .6.1.2.1.3.2.4.4.1.2.1.4.1.7v.2h1.6c0-.5-.1-.9-.2-1.3s-.3-.6-.5-.9c-.2-.2-.5-.4-.8-.5s-.7-.2-1.1-.1c-.4 0-.7 0-1.1.1-.3.1-.6.3-.8.5s-.4.5-.5.9-.2.8-.2 1.3v3c0 .5.1.9.2 1.3s.3.6.5.9c.2.2.5.4.8.5s.7.2 1.1.1c.4 0 .7 0 1.1-.1.3-.1.6-.3.8-.5s.4-.5.5-.9.2-.8.2-1.3v-.3h-1.6v.6c0 .3 0 .5-.1.7s-.2.3-.4.4c-.2.1-.3.1-.6.1-.2 0-.4 0-.6-.1-.2-.1-.3-.2-.4-.4-.1-.2-.1-.4-.1-.7v-3.5zm-2.8 5.9v-1.4h-2.9V44H57v-1.4h-2.1v-1.9h2.8v-1.4h-4.4v8.3h4.4zm-5.9-6.5c-.1-.4-.3-.7-.5-1s-.5-.5-.9-.7c-.3-.2-.8-.3-1.2-.3-.6 0-1 .1-1.4.3s-.6.5-.8.8-.3.8-.3 1.2c0 .3.1.5.2.8.1.2.2.4.4.6.2.2.4.3.6.5.2.1.4.3.7.4.2.1.4.2.7.4.2.1.4.2.6.4.2.1.3.3.4.4.1.2.2.3.2.5s0 .4-.1.5-.2.3-.3.3c-.1.1-.3.1-.5.1s-.3 0-.5-.1-.3-.2-.4-.4c-.1-.2-.2-.5-.3-.8l-1.6.3c.1.5.3 1 .6 1.3s.6.6.9.8c.4.2.8.2 1.2.2.6 0 1-.1 1.4-.3s.7-.5.9-.8c.2-.4.3-.8.3-1.3 0-.3-.1-.6-.2-.9-.1-.3-.2-.5-.4-.7s-.4-.4-.6-.5c-.2-.2-.4-.3-.7-.4-.2-.1-.4-.2-.7-.4l-.6-.3c-.2-.1-.3-.2-.4-.4-.1-.1-.2-.3-.2-.4 0-.3.1-.5.2-.7.2-.2.4-.2.7-.2s.5.1.7.3.3.5.5.9l1.4-.4z" fill="url(#SVGID_3_)"/><radialGradient id="SVGID_4_" cx="9.327" cy="543.182" r="31.101" gradientTransform="translate(0 -540)" gradientUnits="userSpaceOnUse"><stop offset="0" stop-color="#e6e6e5"/><stop offset=".078" stop-color="#d6d5d5"/><stop offset=".206" stop-color="#b4b2b2"/><stop offset=".369" stop-color="#858282"/><stop offset=".561" stop-color="#4f4c4c"/><stop offset=".762" stop-color="#1a1a1a"/></radialGradient><path d="M30.7 12.3C30.4 5.4 23.9-.3 17.1.1 10.2.1 4.2 6.4 4.4 13.2v18.2h4.3V13.2c-.1-4.6 3.9-8.8 8.6-8.8 4.6-.3 8.9 3.6 9.1 8.2.1 8.9 0 9.7 0 18.8h4.4c-.1-9.1 0-9.7-.1-19.1z" fill="url(#SVGID_4_)"/><radialGradient id="SVGID_5_" cx="25.868" cy="554.51" r="26.876" gradientTransform="translate(0 -540)" gradientUnits="userSpaceOnUse"><stop offset="0" stop-color="#fff"/><stop offset="1"/></radialGradient><path d="M28.5 26.5s.9-9.2 1.1-10.3c.3-1.8.1-3.9-.2-5.6-1.5-3.1-5.4-5.4-8.5-6.9C11.7.1 3.8 9.1 7.4 17.7c.1.2.1 11.1.2 11.3.2.5.8 0 .8 0V13.2c-.1-4.8 4.1-9.1 8.8-9.1 4.8-.3 9.2 3.7 9.4 8.5.1 3.8.1 13.9.1 13.9h1.8z" fill="url(#SVGID_5_)"/><path d="M28.2 27.8s.1-11.1.1-11.3c.6-2.5.2-5.5-.6-7.4-.7-3.1-4.5-5.4-7.6-6.9C13.9.7 9.3 5.3 7 9.1c-1.9 2.5-2.2 6.5-.2 9.2.1.1.1 8.6.1 8.6h1V13.2c-.1-5.1 4.3-9.7 9.4-9.7 5-.3 9.8 3.9 10 9 0 2.8.1 15.3.1 15.3h.8z" fill="#989898"/><radialGradient id="SVGID_6_" cx="11.72" cy="541.987" r="20.901" gradientTransform="translate(0 -540)" gradientUnits="userSpaceOnUse"><stop offset="0" stop-color="#fff"/><stop offset="1" stop-color="#333"/></radialGradient><path d="M30.1 12.3C29.8 5.7 23.7.2 17.1.6c-6.6 0-12.3 6-12.2 12.6v18.2h2.3V13.2C7.1 7.9 11.8 3 17.2 2.9c5.3-.3 10.4 4.2 10.6 9.5.1 9.1.1 9.8.1 18.9h2.3c0-9 0-9.7-.1-19z" fill="url(#SVGID_6_)"/><radialGradient id="SVGID_7_" cx="14.991" cy="541.892" r="16.593" gradientTransform="translate(0 -540)" gradientUnits="userSpaceOnUse"><stop offset="0" stop-color="#fff"/><stop offset=".276" stop-color="#fafaf9"/><stop offset=".457" stop-color="#f0eeee"/><stop offset=".611" stop-color="#e0dfde"/><stop offset=".75" stop-color="#cccbca"/><stop offset=".878" stop-color="#b4b3b3"/><stop offset=".998" stop-color="#999"/><stop offset="1" stop-color="#989898"/></radialGradient><path d="M29.4 12.4c-.3-6.2-6.1-11.4-12.3-11C10.9 1.4 5.6 7 5.7 13.2v18.2h.8V13.2c-.1-5.8 4.9-11 10.7-11 5.7-.3 11.1 4.5 11.4 10.3.1 9.1.1 9.8.1 19h.8c-.1-9.2 0-9.9-.1-19.1z" fill="url(#SVGID_7_)"/><g id="Badge_4_"><radialGradient id="SVGID_8_" cx="18.352" cy="561.802" r="33.551" gradientTransform="translate(0 -540)" gradientUnits="userSpaceOnUse"><stop offset="0" stop-color="#fff"/><stop offset="1" stop-color="#323031"/></radialGradient><circle cx="18" cy="37.1" r="17.9" fill="url(#SVGID_8_)"/><linearGradient id="SVGID_9_" gradientUnits="userSpaceOnUse" x1="34.175" y1="601.741" x2="3.466" y2="554.959" gradientTransform="translate(0 -540)"><stop offset=".024" stop-color="#dde3e7"/><stop offset=".056" stop-color="#ebeef0"/><stop offset=".084" stop-color="#fff"/><stop offset=".105" stop-color="#edecec"/><stop offset=".127" stop-color="#d9d9da"/><stop offset=".22" stop-color="#929091"/><stop offset=".264" stop-color="#636467"/><stop offset=".274" stop-color="#6d6d70"/><stop offset=".315" stop-color="#98989a"/><stop offset=".346" stop-color="#b8b8ba"/><stop offset=".364" stop-color="#c6c8c9"/><stop offset=".467" stop-color="#fff"/><stop offset=".516" stop-color="#eee6e5"/><stop offset=".573" stop-color="#e0e0e1"/><stop offset=".605" stop-color="#d7d7d8"/><stop offset=".658" stop-color="#c0c0c1"/><stop offset=".698" stop-color="#abadae"/><stop offset=".868" stop-color="#d1d2d3"/></linearGradient><circle cx="18" cy="37.1" r="15.8" fill="url(#SVGID_9_)"/><radialGradient id="SVGID_10_" cx="-1273.932" cy="184.086" r="22.553" gradientTransform="matrix(0 -1 5.9005 0 -1068.136 -1217.293)" gradientUnits="userSpaceOnUse"><stop offset="0" stop-color="#231f20"/><stop offset="1" stop-color="#fff" stop-opacity="0"/></radialGradient><circle cx="18" cy="37.1" r="15.8" fill="url(#SVGID_10_)"/><linearGradient id="SVGID_11_" gradientUnits="userSpaceOnUse" x1="2.899" y1="570.2" x2="21.236" y2="588.537" gradientTransform="translate(0 -540)"><stop offset="0" stop-color="#fff"/><stop offset="1" stop-color="#fff" stop-opacity="0"/></linearGradient><path d="M30.5 46.7C23 36.2 17.7 28.4 7.6 25.2c-3.3 2.9-5.4 7.2-5.4 11.9 0 8.7 7.1 15.8 15.8 15.8 5.1 0 9.6-2.4 12.5-6.2z" opacity=".7" fill="url(#SVGID_11_)"/><linearGradient id="SVGID_12_" gradientUnits="userSpaceOnUse" x1="26.71" y1="590.534" x2="1.975" y2="552.446" gradientTransform="translate(0 -540)"><stop offset="0" stop-color="#d1d2d3"/><stop offset=".036" stop-color="#dfdfe0"/><stop offset=".073" stop-color="#f2f2f2"/><stop offset=".1" stop-color="#e3e3e4"/><stop offset=".127" stop-color="#d1d2d3"/><stop offset=".22" stop-color="#808184"/><stop offset=".264" stop-color="#595a5c"/><stop offset=".278" stop-color="#68686a"/><stop offset=".317" stop-color="#959597"/><stop offset=".347" stop-color="#b7b7b9"/><stop offset=".364" stop-color="#c6c8c9"/><stop offset=".467" stop-color="#f2f2f2"/><stop offset=".527" stop-color="#f2f2f2"/><stop offset=".594" stop-color="#d1d2d3"/><stop offset=".68" stop-color="#c8cacb"/><stop offset=".702" stop-color="#c6c7c9"/><stop offset=".789" stop-color="#bbbdbf"/><stop offset=".903" stop-color="#929497"/></linearGradient><path d="M18 19.8C8.4 19.8.7 27.6.7 37.1c0 9.6 7.8 17.3 17.3 17.3 9.6 0 17.3-7.8 17.3-17.3S27.5 19.8 18 19.8zm0 30.8c-7.4 0-13.4-6-13.4-13.4s6-13.4 13.4-13.4 13.4 6 13.4 13.4-6 13.4-13.4 13.4z" fill="url(#SVGID_12_)"/><radialGradient id="SVGID_13_" cx="21.277" cy="579.354" r="41.949" gradientTransform="translate(0 -540)" gradientUnits="userSpaceOnUse"><stop offset=".41" stop-color="#fff" stop-opacity="0"/><stop offset=".43" stop-color="#fff" stop-opacity=".859"/><stop offset=".434" stop-color="#fff"/><stop offset=".457" stop-color="#fff" stop-opacity=".859"/><stop offset=".597" stop-color="#fff" stop-opacity="0"/></radialGradient><path d="M18 19.8C8.4 19.8.7 27.6.7 37.1c0 9.6 7.8 17.3 17.3 17.3 9.6 0 17.3-7.8 17.3-17.3S27.5 19.8 18 19.8zm0 30.8c-7.4 0-13.4-6-13.4-13.4s6-13.4 13.4-13.4 13.4 6 13.4 13.4-6 13.4-13.4 13.4z" fill="url(#SVGID_13_)"/><radialGradient id="SVGID_14_" cx="38.796" cy="591.235" r="71.73" gradientTransform="translate(0 -540)" gradientUnits="userSpaceOnUse"><stop offset=".444" stop-color="#fff" stop-opacity="0"/><stop offset=".461" stop-color="#fff" stop-opacity=".859"/><stop offset=".464" stop-color="#fff"/><stop offset=".479" stop-color="#fff" stop-opacity=".859"/><stop offset=".573" stop-color="#fff" stop-opacity="0"/></radialGradient><path d="M18 19.8C8.4 19.8.7 27.6.7 37.1c0 9.6 7.8 17.3 17.3 17.3 9.6 0 17.3-7.8 17.3-17.3S27.5 19.8 18 19.8zm0 30.8c-7.4 0-13.4-6-13.4-13.4s6-13.4 13.4-13.4 13.4 6 13.4 13.4-6 13.4-13.4 13.4z" fill="url(#SVGID_14_)"/><radialGradient id="SVGID_15_" cx="16.242" cy="575.932" r="42.503" gradientTransform="translate(0 -540)" gradientUnits="userSpaceOnUse"><stop offset=".351" stop-color="#fff" stop-opacity="0"/><stop offset=".371" stop-color="#fcfcfc" stop-opacity=".196"/><stop offset=".387" stop-color="#f2f2f2" stop-opacity=".347"/><stop offset=".401" stop-color="#e2e2e2" stop-opacity=".484"/><stop offset=".415" stop-color="#cacaca" stop-opacity=".612"/><stop offset=".427" stop-color="#acacac" stop-opacity=".734"/><stop offset=".44" stop-color="#888" stop-opacity=".851"/><stop offset=".451" stop-color="#5d5d5d" stop-opacity=".963"/><stop offset=".455" stop-color="#4d4d4d"/><stop offset=".46" stop-color="#646464" stop-opacity=".972"/><stop offset=".468" stop-color="#888" stop-opacity=".922"/><stop offset=".477" stop-color="#a8a8a8" stop-opacity=".865"/><stop offset=".487" stop-color="#c4c4c4" stop-opacity=".802"/><stop offset=".498" stop-color="#dadada" stop-opacity=".731"/><stop offset=".512" stop-color="#ebebeb" stop-opacity=".647"/><stop offset=".528" stop-color="#f6f6f6" stop-opacity=".544"/><stop offset=".551" stop-color="#fdfdfd" stop-opacity=".4"/><stop offset=".616" stop-color="#fff" stop-opacity="0"/></radialGradient><path d="M18 19.8C8.4 19.8.7 27.6.7 37.1c0 9.6 7.8 17.3 17.3 17.3 9.6 0 17.3-7.8 17.3-17.3S27.5 19.8 18 19.8zm0 30.8c-7.4 0-13.4-6-13.4-13.4s6-13.4 13.4-13.4 13.4 6 13.4 13.4-6 13.4-13.4 13.4z" fill="url(#SVGID_15_)"/><linearGradient id="SVGID_16_" gradientUnits="userSpaceOnUse" x1="18" y1="590.21" x2="18" y2="559.821" gradientTransform="translate(0 -540)"><stop offset="0" stop-color="#323031"/><stop offset="1" stop-color="#fff"/></linearGradient><path d="M18 19.8C8.4 19.8.6 27.6.6 37.2S8.4 54.6 18 54.6s17.4-7.8 17.4-17.4c-.1-9.6-7.9-17.4-17.4-17.4zm0 34.3c-9.4 0-17-7.6-17-17 0-9.3 7.6-16.9 17-16.9s16.9 7.6 16.9 16.9c0 9.4-7.6 17-16.9 17z" fill="url(#SVGID_16_)"/><linearGradient id="SVGID_17_" gradientUnits="userSpaceOnUse" x1="18" y1="587.435" x2="18" y2="563.498" gradientTransform="translate(0 -540)"><stop offset="0" stop-color="#fff"/><stop offset="1" stop-color="#818181"/></linearGradient><path d="M18 23.5c-7.6 0-13.7 6.1-13.7 13.7S10.4 50.9 18 50.9s13.7-6.1 13.7-13.7c-.1-7.6-6.2-13.7-13.7-13.7zm0 27c-7.4 0-13.3-6-13.3-13.3 0-7.4 6-13.3 13.3-13.3 7.4 0 13.3 6 13.3 13.3s-6 13.3-13.3 13.3z" fill="url(#SVGID_17_)"/></g><g id="Yellow_2_"><linearGradient id="SVGID_18_" gradientUnits="userSpaceOnUse" x1="4.5" y1="577.2" x2="31.5" y2="577.2" gradientTransform="translate(0 -540)"><stop offset="0" stop-color="#c52126"/><stop offset=".077" stop-color="#eb222c"/><stop offset=".258" stop-color="#f0625a"/><stop offset=".339" stop-color="#d84946"/><stop offset=".427" stop-color="#ca3438"/><stop offset=".508" stop-color="#c12530"/><stop offset=".577" stop-color="#be202e"/><stop offset="1" stop-color="#9e1d20"/></linearGradient><circle cx="18" cy="37.2" r="13.5" fill="url(#SVGID_18_)"/><linearGradient id="SVGID_19_" gradientUnits="userSpaceOnUse" x1="9.303" y1="567.457" x2="26.833" y2="587.095" gradientTransform="translate(0 -540)"><stop offset="0" stop-color="#c52126"/><stop offset=".077" stop-color="#eb222c"/><stop offset=".258" stop-color="#f0625a"/><stop offset=".339" stop-color="#d84946"/><stop offset=".427" stop-color="#ca3438"/><stop offset=".508" stop-color="#c12530"/><stop offset=".577" stop-color="#be202e"/><stop offset="1" stop-color="#9e1d20"/></linearGradient><circle cx="18" cy="37.2" r="13.3" fill="url(#SVGID_19_)"/><path id="Red_4_" d="M28.1 45.1c-4.4 5.9-12.7 6.7-18.3 2.4-5.3-4.1-6.7-11.7-3.2-17.3 3.7-5.9 11.6-7.9 17.8-4.1 6.7 4.1 8.4 12.8 3.7 19z" fill="#be202e"/><path d="M30.4 34.3c.5 3.4-.3 6.9-2.5 9.8-4.4 5.9-12.7 6.8-18.3 2.4-2.6-2-4.2-4.7-4.8-7.6.5 3.2 2.2 6.3 5 8.5 5.6 4.3 13.9 3.5 18.3-2.4 2.5-3.1 3.2-7 2.3-10.7z" opacity=".8" fill="#f58f97"/><path d="M11.2 26.1c6.2-3.9 14.1-1.8 17.8 4.1 1.3 2.1 2 4.5 2 6.8-6.1-3.2-13.4-3.4-19.4.6-2.2 1.5-3.9 3.3-5.3 5.5-3-6-1-13.4 4.9-17z" opacity=".5" fill="#fff"/><path d="M23.8 27.5C18.4 24 11.4 25.8 8.1 31 5 36 6.2 42.7 10.9 46.3c5 3.8 12.2 3 16.1-2.2 4-5.4 2.6-13-3.2-16.6zM12.7 43.7c-3.4-2.5-4.3-7.3-2-10.9 2.4-3.6 7.3-4.8 11.1-2.3C25.7 33 26.7 38.3 24 42c-2.7 3.6-7.8 4.3-11.3 1.7z" opacity=".6" fill="#fff"/><path id="Rays_2_" class="st2" d="M17.7 28.3h.4v-3.6h-.4v3.6zM12 30.7l-2.6-2.5-.3.3 2.6 2.6.3-.4zm5.8 18.5h.4v-3.6h-.4v3.6zm-6-6.3l-2.6 2.6.3.3 2.6-2.6-.3-.3zm-2.4-6.2H5.8v.4h3.6v-.4zm14.8-5.8l2.5-2.6-.2-.3-2.5 2.6.2.3zM24 43.1l2.6 2.6.3-.3-2.6-2.6-.3.3zm2.6-6.4v.4h3.6v-.4h-3.6zM8 39.4l-1.9.6.1.4 2-.5-.2-.5zm16.3-13l-.4-.2-1 1.7.4.2 1-1.7zm3.6 8.1l1.9-.6-.1-.4-2 .5.2.5zM9.2 31.6l-1.8-1-.2.4L9 32l.2-.4zm5.4-6.5l.5 2 .5-.1-.6-2-.4.1zm-2.9 22.3l.4.2 1-1.7-.4-.2-1 1.7zm8.7-.6l.6 1.9.4-.1-.5-2-.5.2zm6.3-4.6l1.8 1 .2-.4-1.7-1-.3.4zM27 32l1.7-1.1-.2-.4-1.8 1 .3.5zm-4.1 13.9l1.1 1.7.4-.2-1-1.8-.5.3zm4.9-6.2l2 .5.1-.4-2-.6-.1.5zM8.2 34.1l-2-.5-.1.4 1.9.5.2-.4zm12.2-7.2l.5.1.5-2h-.5l-.5 1.9zm-8.8-.5l1 1.8.4-.2-1-1.8-.4.2zM9 41.8l-1.7 1.1.2.4 1.8-1-.3-.5zm5.7 6.9l.4.1.6-2-.5-.1-.5 2z"/></g><g id="Red_margin_2_"><linearGradient id="SVGID_20_" gradientUnits="userSpaceOnUse" x1="26.474" y1="585.574" x2="8.74" y2="567.84" gradientTransform="translate(0 -540)"><stop offset="0" stop-color="#c52126"/><stop offset=".077" stop-color="#eb222c"/><stop offset=".258" stop-color="#f0625a"/><stop offset=".339" stop-color="#d84946"/><stop offset=".427" stop-color="#ca3438"/><stop offset=".508" stop-color="#c12530"/><stop offset=".577" stop-color="#be202e"/><stop offset="1" stop-color="#9e1d20"/></linearGradient><circle cx="18" cy="37.1" r="11.3" fill="url(#SVGID_20_)"/><linearGradient id="SVGID_21_" gradientUnits="userSpaceOnUse" x1="6.7" y1="577.2" x2="29.236" y2="577.2" gradientTransform="translate(0 -540)"><stop offset="0" stop-color="#c52126"/><stop offset=".077" stop-color="#eb222c"/><stop offset=".258" stop-color="#f0625a"/><stop offset=".339" stop-color="#d84946"/><stop offset=".427" stop-color="#ca3438"/><stop offset=".508" stop-color="#c12530"/><stop offset=".577" stop-color="#be202e"/><stop offset="1" stop-color="#9e1d20"/></linearGradient><path d="M18 25.9c-6.2 0-11.3 5-11.3 11.3 0 6.2 5 11.3 11.3 11.3 6.2 0 11.3-5 11.3-11.3-.1-6.3-5.1-11.3-11.3-11.3zM18 48c-6 0-10.9-4.9-10.9-10.9S12 26.2 18 26.2s10.9 4.9 10.9 10.9S24 48 18 48z" fill="url(#SVGID_21_)"/></g><g id="Badge_3_"><circle cx="18" cy="37.1" r="10.4" fill="#a1a3a6"/><linearGradient id="SVGID_22_" gradientUnits="userSpaceOnUse" x1="28.661" y1="593.341" x2="8.424" y2="562.511" gradientTransform="translate(0 -540)"><stop offset=".024" stop-color="#dde3e7"/><stop offset=".056" stop-color="#ebeef0"/><stop offset=".084" stop-color="#fff"/><stop offset=".105" stop-color="#edecec"/><stop offset=".127" stop-color="#d9d9da"/><stop offset=".22" stop-color="#929091"/><stop offset=".264" stop-color="#636467"/><stop offset=".274" stop-color="#6d6d70"/><stop offset=".315" stop-color="#98989a"/><stop offset=".346" stop-color="#b8b8ba"/><stop offset=".364" stop-color="#c6c8c9"/><stop offset=".467" stop-color="#fff"/><stop offset=".516" stop-color="#eee6e5"/><stop offset=".573" stop-color="#e0e0e1"/><stop offset=".605" stop-color="#d7d7d8"/><stop offset=".658" stop-color="#c0c0c1"/><stop offset=".698" stop-color="#abadae"/><stop offset=".868" stop-color="#d1d2d3"/></linearGradient><circle cx="18" cy="37.1" r="10.4" fill="url(#SVGID_22_)"/><radialGradient id="SVGID_23_" cx="13.353" cy="571.053" r="7.962" gradientTransform="translate(0 -540)" gradientUnits="userSpaceOnUse"><stop offset="0" stop-color="#fff"/><stop offset="1" stop-color="#fff" stop-opacity="0"/></radialGradient><path d="M26 43.3c-4.8-6.7-8.2-11.7-14.7-13.8-2.1 1.9-3.5 4.6-3.5 7.6 0 5.6 4.5 10.1 10.1 10.1 3.3 0 6.2-1.5 8.1-3.9z" fill="url(#SVGID_23_)"/><linearGradient id="SVGID_24_" gradientUnits="userSpaceOnUse" x1="18" y1="584.852" x2="18" y2="566.921" gradientTransform="translate(0 -540)"><stop offset="0" stop-color="#323031"/><stop offset="1" stop-color="#fff"/></linearGradient><path d="M18 26.9c-5.7 0-10.2 4.6-10.2 10.2 0 5.7 4.6 10.2 10.2 10.2 5.7 0 10.2-4.6 10.2-10.2S23.6 26.9 18 26.9zm0 19.6c-5.1 0-9.3-4.2-9.3-9.3s4.2-9.3 9.3-9.3 9.3 4.2 9.3 9.3-4.2 9.3-9.3 9.3z" fill="url(#SVGID_24_)"/></g><g id="C_2_"><radialGradient id="SVGID_25_" cx="21.512" cy="583.486" r="52.475" gradientTransform="translate(0 -540)" gradientUnits="userSpaceOnUse"><stop offset="0" stop-color="#fff"/><stop offset="1"/></radialGradient><path d="M18.4 30.4c-.6 0-1.2 0-1.8.1-3.3.5-5.1 2.4-5.6 5.5l-.3 2.2c-.2 1.6.1 2.9.9 3.8 1 1.1 2.6 1.8 4.8 1.9h3.9c.6 0 1.1-.1 1.4-.3.4-.2.7-.6 1-1.1.1-.1.1-.2.1-.3s.2-.5.3-1l.1-.6h-5.7c-.6 0-1-.1-1.4-.2-.3-.1-.6-.2-.7-.4-.1-.1-.2-.3-.2-.4v-1.4l.3-1.9c0-.2.1-.4.1-.6l.1-.2c0-.1.1-.3.1-.4V35c0-.1.1-.2.1-.3s.1-.1.2-.2c.2-.3.5-.5 1-.6.4-.2 1-.2 1.8-.2h3c.5-.1.8-.1 1.1-.3.3-.2.6-.5.8-.8 0 0 .1-.1.1-.2.2-.3.3-.6.4-.9l.3-1-6.2-.1z" fill="url(#SVGID_25_)"/><linearGradient id="SVGID_26_" gradientUnits="userSpaceOnUse" x1="14.042" y1="569.909" x2="18.087" y2="576.265" gradientTransform="translate(0 -540)"><stop offset="0" stop-color="#c52126"/><stop offset=".077" stop-color="#eb222c"/><stop offset=".258" stop-color="#f0625a"/><stop offset=".339" stop-color="#d84946"/><stop offset=".427" stop-color="#ca3438"/><stop offset=".508" stop-color="#c12530"/><stop offset=".577" stop-color="#be202e"/><stop offset="1" stop-color="#9e1d20"/></linearGradient><path d="M22.6 41.1h-4.9c-.7 0-1.2-.1-1.6-.2-.4-.1-.7-.3-.9-.5s-.3-.4-.3-.7v-1.6l.2-1.9c0-.2.1-.4.1-.6 0-.1 0-.1.1-.2 0-.2.1-.3.2-.5v-.1c.1-.1.1-.2.2-.3.1-.1.1-.2.2-.3.3-.3.7-.6 1.2-.8s1.1-.3 1.9-.3h2.7c.5 0 .8-.1 1.1-.3.3-.2.5-.4.7-.6 0 0 0-.1.1-.1.1-.2.3-.5.3-.8l.1-.4h-5.5c-.6 0-1.2.1-1.7.1-3.1.5-4.8 2.1-5.1 5l-.3 2.2c-.2 1.5.1 2.6.8 3.4.8.9 2.3 1.6 4.4 1.7h3.8c.5 0 1-.1 1.2-.2.3-.2.6-.5.8-.9 0-.1.1-.2.1-.3-.1.1.1-.3.1-.8z" fill="url(#SVGID_26_)"/><linearGradient id="SVGID_27_" gradientUnits="userSpaceOnUse" x1="23.551" y1="569.592" x2="14.019" y2="582.495" gradientTransform="translate(0 -540)"><stop offset="0" stop-color="#c52126"/><stop offset=".077" stop-color="#eb222c"/><stop offset=".258" stop-color="#f0625a"/><stop offset=".339" stop-color="#d84946"/><stop offset=".427" stop-color="#ca3438"/><stop offset=".508" stop-color="#c12530"/><stop offset=".577" stop-color="#be202e"/><stop offset="1" stop-color="#9e1d20"/></linearGradient><path d="M22.6 41.1h-4.9c-.7 0-1.2-.1-1.6-.2-.4-.1-.7-.3-.9-.5s-.3-.4-.3-.7v-1.6l.2-1.9c0-.2.1-.4.1-.6 0-.1 0-.1.1-.2 0-.2.1-.3.2-.5v-.1c.1-.1.1-.2.2-.3.1-.1.1-.2.2-.3.3-.3.7-.6 1.2-.8s1.1-.3 1.9-.3h2.7c.5 0 .8-.1 1.1-.3.3-.2.5-.4.7-.6 0 0 0-.1.1-.1.1-.2.3-.5.3-.8l.1-.4h-5.5c-.6 0-1.2.1-1.7.1-3.1.5-4.8 2.1-5.1 5l-.3 2.2c-.2 1.5.1 2.6.8 3.4.8.9 2.3 1.6 4.4 1.7h3.8c.5 0 1-.1 1.2-.2.3-.2.6-.5.8-.9 0-.1.1-.2.1-.3-.1.1.1-.3.1-.8z" fill="url(#SVGID_27_)"/><radialGradient id="SVGID_28_" cx="10.45" cy="564.255" r="21.139" gradientTransform="translate(0 -540)" gradientUnits="userSpaceOnUse"><stop offset="0" stop-color="#fff"/><stop offset="1" stop-color="#c42032" stop-opacity="0"/></radialGradient><path d="M12.3 39.7c0-4.3 1.1-7.8 5.3-7.8 4.3 0 6 0 6.3-1h-5.4c-.6 0-1.2.1-1.7.1-3.1.5-4.8 2.1-5.1 5l-.3 2.2c-.2 1.5.1 2.6.8 3.4.8.9 2.3 1.6 4.4 1.7h.7c-2-.2-5-1.1-5-3.6z" fill="url(#SVGID_28_)"/></g></svg>