<?xml version="1.0" encoding="utf-8"?>
<!-- Generator: Adobe Illustrator 19.0.1, SVG Export Plug-In . SVG Version: 6.00 Build 0)  -->
<svg version="1.1" id="Слой_1" xmlns="http://www.w3.org/2000/svg" xmlns:xlink="http://www.w3.org/1999/xlink" x="0px" y="0px"
	 viewBox="-291 414.9 12 12" style="enable-background:new -291 414.9 12 12;" xml:space="preserve">
<style type="text/css">
	.st0{fill:#4B6BA8;}
	.st1{fill:#FFFFFF;}
</style>
<path class="st0" d="M-285,414.9c-3.3,0-6,2.7-6,6s2.7,6,6,6s6-2.7,6-6S-281.7,414.9-285,414.9z"/>
<path class="st1" d="M-285,417.7c-0.4,0-0.8,0.2-0.8,0.6v3.3c0,0.4,0.3,0.6,0.8,0.6c0.4,0,0.8-0.2,0.8-0.6v-3.3
	C-284.2,418-284.6,417.7-285,417.7z M-285,423c-0.4,0-0.7,0.3-0.7,0.7s0.3,0.8,0.7,0.8s0.7-0.3,0.7-0.7
	C-284.3,423.3-284.6,423-285,423z"/>
</svg>
