<svg xmlns="http://www.w3.org/2000/svg" viewBox="0 0 299.08 299.07"><g data-name="Слой 2"><path d="M259.2 0H39.88A39.88 39.88 0 0 0 0 39.88V259.2a39.88 39.88 0 0 0 39.88 39.88H259.2a39.88 39.88 0 0 0 39.88-39.88V39.88A39.88 39.88 0 0 0 259.2 0zM226 136.48l-68.56 67.72a11.27 11.27 0 0 1-15.8 0l-68.58-67.72a10.94 10.94 0 0 1 0-15.6 11.27 11.27 0 0 1 15.8 0l60.68 59.92 60.68-59.92a11.27 11.27 0 0 1 15.79 0 10.92 10.92 0 0 1-.01 15.6z" fill="#4c5c7f" fill-rule="evenodd" data-name="Слой 1"/></g></svg>