<svg id="Слой_1" xmlns="http://www.w3.org/2000/svg" viewBox="0 0 18 18"><style>.st0{fill:#29337a}.st1{fill:#fff}.st2{fill:#d32030}.st5{fill:#d71f28}</style><path class="st0" d="M1.6 3.9C1 4.7.6 5.7.3 6.7h4.1L1.6 3.9zM6.5.4c-1 .3-2 .8-2.8 1.4l2.8 2.8V.4zm-2.7 16c.8.6 1.7 1 2.6 1.3v-3.9l-2.6 2.6zM.4 11.7c.3 1 .8 1.9 1.3 2.7l2.7-2.7h-4z"/><path class="st1" d="M1.7 3.7c0 .1-.1.1-.1.2l2.8 2.8H.3c-.1.3-.1.5-.2.8h5.4L1.7 3.7zm1.9 12.5c.1.1.1.1.2.1l2.6-2.6v3.9c.3.1.5.1.8.2v-5.2l-3.6 3.6zM.2 10.9c.1.3.1.5.2.8h4l-2.7 2.7c.3.4.6.8 1 1.1L7.2 11h-7v-.1zM6.5.4v4.3L3.6 1.8c-.4.3-.8.6-1.1 1l4.7 4.7V.2c-.2 0-.5.1-.7.2z"/><path class="st2" d="M6.5 11.6v.1zm.7-.7h.1zm3.5-3.4zm-4.2-.8zm.8.7v.1z"/><path d="M11.4 15.6v2c1-.3 1.9-.7 2.7-1.3l-2.2-2.2c-.2.7-.2 1.1-.5 1.5zm.5-11.5l2.4-2.4c-.9-.6-1.8-1.1-2.9-1.4v2.1c.3.6.3 1 .5 1.7zm4.3 10.3c.6-.8 1.1-1.7 1.4-2.7h-4.1l2.7 2.7zm1.5-7.7c-.3-1-.7-2-1.3-2.9l-2.9 2.9h4.2z" fill="#252f6c"/><path d="M12.5 11l.6.6 3 3c.1-.1.1-.2.2-.3l-2.7-2.7h4.1c.1-.3.1-.5.2-.8h-5.3c-.1.2-.1.1-.1.2zm-.7-6.4l2.7-2.7-.2-.2-2.4 2.4c0 .1-.1.4-.1.5zm-.4-2.4V.3c-.3-.1-.5-.1-.8-.2V1c.3.4.6.8.8 1.2zm1 5.3h5.5c0-.3-.1-.5-.2-.8h-4.2l2.9-2.9c-.3-.4-.6-.8-.9-1.1l-3.2 3.2c0 .6.1 1 .1 1.6zm-.6 6.6l2.3 2.3c.4-.3.7-.6 1.1-.9l-3-3c-.2.6-.3 1.1-.4 1.6zm-1.1 2.7v1c.3 0 .5-.1.8-.2v-2c-.3.5-.6.9-.8 1.2z" fill="#e7e7e7"/><path class="st5" d="M12.2 5.9l3.2-3.2c-.3-.3-.6-.6-.9-.8L12 4.4c.1.5.1 1 .2 1.5z"/><path class="st2" d="M8.6 0H9h-.4zM9 18h-.4.4zm0 0c.6 0 1.1-.1 1.7-.2v-1c-.5.5-1.1 1.2-1.7 1.2z"/><path class="st5" d="M17.9 7.5h-5.4c.1 1.1.1 2.3 0 3.4h5.4c0-.6.1-1.3.1-1.9 0-.5 0-1-.1-1.5zM12.5 11c-.1.5-.2.9-.3 1.4l3 3c.3-.3.6-.6.8-.9l-3-3-.5-.5z"/><path class="st2" d="M10.7 1.2v-1C10.1.1 9.6 0 9 0c.6 0 1.2.6 1.7 1.2z"/><path class="st0" d="M11.4 16c.2-.5.5-1 .6-1.7l-.6-.6V16zm.7-12.1c-.2-.7-.4-1.4-.7-1.9v2.7l.7-.8z"/><path class="st1" d="M12.6 11.2v-.3h-.4l.4.3zm-1.2-6.6V2c-.2-.5-.5-.8-.8-1.2v4.9l1.5-1.5c0-.1 0-.2-.1-.3l-.6.7zm-.7 2.9h2c0-.6-.1-1.2-.2-1.8l-1.8 1.8zm0 9.7c.3-.3.5-.7.8-1.2v-2.3l.6.6c.1-.5.3-1 .4-1.6L10.7 11v6.2z"/><path d="M10.7 17.2V11l1.8 1.8c.1-.5.2-1 .2-1.6l-.3-.3h.4c.1-1.1.1-2.3 0-3.4h-2l1.8-1.8-.3-1.5-1.5 1.5V.8C10.2.3 9.6 0 9 0h-.4c-.5 0-.9.1-1.3.2v7.3L2.5 2.7c-.3.3-.5.7-.8 1l3 3 .8.8H.1C0 8 0 8.5 0 9c0 .6.1 1.3.2 1.9h7l-4.5 4.5c.3.3.6.6.9.8l3.6-3.6v5.2c.5.1.9.2 1.4.2H9c.6 0 1.2-.3 1.7-.8z" fill="#e51d35"/></svg>